<svg width="198" height="174" viewBox="0 0 198 174" fill="none" xmlns="http://www.w3.org/2000/svg">
<rect x="78" y="66" width="100" height="21" rx="10.5" fill="#F2F7FC"/>
<rect x="9" y="28" width="189" height="21" rx="10.5" fill="#F2F7FC"/>
<rect x="19" y="100" width="99" height="21" rx="10.5" fill="#F2F7FC"/>
<rect y="133" width="99" height="21" rx="10.5" fill="#F2F7FC"/>
<path d="M128.625 101.5H122.898L120.868 99.5425C127.973 91.2775 132.25 80.5475 132.25 68.875C132.25 42.8475 111.152 21.75 85.125 21.75C59.0975 21.75 38 42.8475 38 68.875C38 94.9025 59.0975 116 85.125 116C96.7975 116 107.527 111.723 115.792 104.618L117.75 106.648V112.375L154 148.552L164.802 137.75L128.625 101.5V101.5ZM85.125 101.5C67.0725 101.5 52.5 86.9275 52.5 68.875C52.5 50.8225 67.0725 36.25 85.125 36.25C103.178 36.25 117.75 50.8225 117.75 68.875C117.75 86.9275 103.178 101.5 85.125 101.5Z" fill="#0466C8"/>
</svg>
